# xmcd CD database file
#
# Track frame offsets:
#	150
#	19298
#	39850
#	61290
#	80372
#	103292
#	130197
#	152666
#	173531
#	192737
#	212628
#	232615
#
# Disc length: 3459 seconds
#
# Revision: 0
# Processed by: cddbd v1.5.2PL0 Copyright (c) Steve Scherf et al.
# Submitted via: CDex 1.70beta2
#
DISCID=940d810c
DTITLE=Flevans - 27 Devils
DYEAR=2009
DGENRE=Jazz
TTITLE0=Hold On
TTITLE1=Pretty From A Distance
TTITLE2=27 Devils
TTITLE3=More On The Way
TTITLE4=Mad Perks
TTITLE5=On and Out 
TTITLE6=Endless Things
TTITLE7=Flicker
TTITLE8=All To Play For 
TTITLE9=Hold No Water
TTITLE10=Lay Back
TTITLE11=Neckbone
EXTD=YEAR: 2009
EXTT0=
EXTT1=
EXTT2=
EXTT3=
EXTT4=
EXTT5=
EXTT6=
EXTT7=
EXTT8=
EXTT9=
EXTT10=
EXTT11=
PLAYORDER=
